<svg xmlns="http://www.w3.org/2000/svg" viewBox="0 0 463.65 452.06"><defs><style>.a{fill:#00005b;}.b{fill:#99f;}</style></defs><title>adobe-animate</title><rect class="a" width="463.65" height="452.06" rx="82.1"/><path class="b" d="M187.47,270.46H115.63L100.87,315.8a3.66,3.66,0,0,1-3.73,2.8H60.75c-2.08,0-2.8-1.14-2.18-3.42L121,136.92c.62-1.86,1.24-3.53,1.86-5.91a66.62,66.62,0,0,0,1.25-12.6,1.93,1.93,0,0,1,1.63-2.18,2.44,2.44,0,0,1,.54,0h49.46q2.17,0,2.49,1.56l70.34,197.7q.93,3.11-1.87,3.11H206.31a2.88,2.88,0,0,1-3.11-2.18ZM127,232.1h49.14q-1.87-6.22-4.36-14t-5.28-16.64q-2.8-8.86-5.6-17.73t-5.13-17.1q-2.34-8.24-4.2-15.09h-.31a248,248,0,0,1-6.54,24.88q-4.35,14-8.86,28.62T127,232.1Z"/><path class="b" d="M270.38,315.64V201q0-5.3-.15-11.82t-.47-12.44c-.21-3.94-.42-7.6-.62-9.88a1.85,1.85,0,0,1,.31-1.87,2.55,2.55,0,0,1,1.87-.62h31a7,7,0,0,1,3.12.62,2.94,2.94,0,0,1,1.55,2.18l1.4,4.2a32.08,32.08,0,0,1,1.09,6.3,62.54,62.54,0,0,1,20.53-12,70.66,70.66,0,0,1,23.32-3.88,58.88,58.88,0,0,1,18.2,2.95A46,46,0,0,1,401,193.38c3.11,8,4.33,18.3,4.33,30.94v91.32c0,1.86-.83,2.8-2.49,2.8l-36.34.32a2.76,2.76,0,0,1-3.11-2.33,2.55,2.55,0,0,1,0-.78V229a42.86,42.86,0,0,0-3.76-16.82,22.2,22.2,0,0,0-7.93-9.64,23.37,23.37,0,0,0-13.22-3.42,38.82,38.82,0,0,0-14.61,2.64,36.88,36.88,0,0,0-11.51,7.31V315.64c0,1.86-.83,2.8-2.49,2.8H273.18a2.48,2.48,0,0,1-2.8-2.1A2.73,2.73,0,0,1,270.38,315.64Z"/></svg>