<?xml version="1.0" encoding="UTF-8"?>
<svg width="800px" height="800px" preserveAspectRatio="xMidYMid" version="1.1" viewBox="0 0 256 256" xmlns="http://www.w3.org/2000/svg">
<circle cx="128" cy="128" r="128" fill="#FC521F"></circle>
<path d="m158.16 187.02-20.391-11.769 61.344-35.383c2.3526-1.3565 4.5677-2.9147 6.63-4.6502 7.9743 11.353 8.7565 26.303 1.6499 38.616-6.4711 11.138-18.374 17.997-31.256 18.011-6.2847 0-12.496-1.6651-17.977-4.8274v0.003055zm-4.9129 8.4998c2.3526 1.3596 4.809 2.5023 7.348 3.4219-5.857 12.569-18.42 20.721-32.652 20.721-19.866 0-36.037-16.153-36.037-36.007v-70.773l31.124 17.962v44.409c0 1.7537 0.93798 3.373 2.4565 4.2499l27.76 16.016zm-73.403-3.6816c-12.874-0.01299-24.772-6.8675-31.24-17.999-4.8018-8.2614-6.0957-18.102-3.593-27.323 2.4486-9.2407 8.4947-17.117 16.789-21.87l20.385-11.763 0.0030553 70.761c0 2.7162 0.2322 5.4079 0.70577 8.0751-1.0144 0.079438-2.0348 0.11916-3.0492 0.11916zm79.325-87.458-31.115 17.95-38.497-22.203c-1.52-0.87392-3.3899-0.87392-4.9099 0l-27.76 16.013c-2.3526 1.3535-4.5707 2.9025-6.6361 4.6471-7.9682-11.35-8.7473-26.303-1.6468-38.616 6.4693-11.139 18.372-17.999 31.253-18.014 6.2786 0 12.496 1.6743 17.977 4.8335l61.335 35.389zm-31.225-68.035c19.875 0 36.037 16.153 36.037 36.016v23.526l-61.326-35.38c-2.3459-1.3585-4.808-2.5057-7.3571-3.428 5.8539-12.579 18.423-20.733 32.646-20.733zm79.447 45.839c9.9297 17.198 4.0147 39.264-13.196 49.193l-61.335 35.38v-35.906l38.494-22.209c1.5215-0.87687 2.4595-2.4962 2.4595-4.2499v-32.032c0-2.7039-0.24442-5.3987-0.70883-8.0537 13.922-1.1601 27.267 5.7982 34.286 17.877z" fill="#fff"></path>
</svg>
