<?xml version="1.0" encoding="utf-8"?>
<!-- Generator: Adobe Illustrator 27.0.0, SVG Export Plug-In . SVG Version: 6.00 Build 0)  -->
<svg version="1.1" id="Layer_1" xmlns="http://www.w3.org/2000/svg" xmlns:xlink="http://www.w3.org/1999/xlink" x="0px" y="0px"
	 viewBox="0 0 249.6 290.7" style="enable-background:new 0 0 249.6 290.7;" xml:space="preserve">
<style type="text/css">
	
		.st0{opacity:0.4;clip-path:url(#SVGID_00000149370743509652553160000012425109543528519327_);fill-rule:evenodd;clip-rule:evenodd;enable-background:new    ;}
	.st1{fill-rule:evenodd;clip-rule:evenodd;fill:#88CE02;stroke:#000000;stroke-width:5;stroke-linejoin:round;}
	
		.st2{opacity:0.4;clip-path:url(#SVGID_00000178911765276566778240000012049269761221218989_);fill-rule:evenodd;clip-rule:evenodd;enable-background:new    ;}
	.st3{fill-rule:evenodd;clip-rule:evenodd;}
	.st4{fill-rule:evenodd;clip-rule:evenodd;fill:#EFEFEF;}
	.st5{fill-rule:evenodd;clip-rule:evenodd;fill:#88CE02;}
	.st6{fill-rule:evenodd;clip-rule:evenodd;fill:#001423;}
	.st7{opacity:0.3;fill-rule:evenodd;clip-rule:evenodd;enable-background:new    ;}
	.st8{opacity:0.4;fill-rule:evenodd;clip-rule:evenodd;enable-background:new    ;}
	
		.st9{fill-rule:evenodd;clip-rule:evenodd;fill:#88CE02;stroke:#000000;stroke-width:2.6;stroke-linejoin:round;stroke-miterlimit:10;}
</style>
<g id="capeFlow1">
	<g>
		<defs>
			<path id="SVGID_1_" d="M123.8,67c-11.6,3.8-18.6,6.6-42.2,17.3c-13.1,5.9-49.1,20.5-57.8,36.6c29.1-16.9,35.6,4.6,37.9,28.5
				c2.1,22.3,13.4,34,41.9,33.3c29.6-0.7,38.4,16.4,46.6,36.6c15.8-77.2,14-89.4,17.8-99.9C165.8,89.4,139.7,61.2,123.8,67z"/>
		</defs>
		<clipPath id="SVGID_00000182491843099064670930000012720747589261643700_">
			<use xlink:href="#SVGID_1_"  style="overflow:visible;"/>
		</clipPath>
		
			<path id="shadowTop1" style="opacity:0.4;clip-path:url(#SVGID_00000182491843099064670930000012720747589261643700_);fill-rule:evenodd;clip-rule:evenodd;enable-background:new    ;" d="
			M111.2,84.3c-14.9,6.1-55.2,22.3-66,28.2c-2,0.8-26.4,14.3-26.4,14.3c2.3,6.8,28.5,46.4,30.7,46.2c2-0.2,10.4-10.1,13.3-16.7
			c9.8-26.8,44.9-55.1,46.3-57.3c0.6-1-0.9-5.3,1.5-9.4C113.6,84.2,119.6,80.9,111.2,84.3z"/>
	</g>
	<path id="capeTop1" class="st1" d="M183.9,41.9C140,57.2,96.4,60.9,45.3,92.5C33,100,7.5,117,2.5,149.4
		c18.7-20.7,61.8-46.6,114.6-63.1c26.6-8.3,46.1-13.8,69.8-23C185.2,52.7,185.3,48.5,183.9,41.9z"/>
	<g>
		<defs>
			<path id="SVGID_00000047040150226407465710000002413262990639892103_" d="M123.8,67c-11.6,3.8-18.6,6.6-42.2,17.3
				c-13.1,5.9-49.1,20.5-57.8,36.6c29.1-16.9,35.6,4.6,37.9,28.5c2.1,22.3,13.4,34,41.9,33.3c29.6-0.7,38.4,16.4,46.6,36.6
				c15.8-77.2,14-89.4,17.8-99.9C165.8,89.4,139.7,61.2,123.8,67z"/>
		</defs>
		<clipPath id="SVGID_00000057841284023899494240000006269748355793876627_">
			<use xlink:href="#SVGID_00000047040150226407465710000002413262990639892103_"  style="overflow:visible;"/>
		</clipPath>
		
			<path id="shadowBottom1" style="opacity:0.4;clip-path:url(#SVGID_00000057841284023899494240000006269748355793876627_);fill-rule:evenodd;clip-rule:evenodd;enable-background:new    ;" d="
			M145.9,215.9c12.3-15.5,8.5-34.8,8.4-52c-0.1-7.2,5.2-17.4,2.6-14.5c-10,11.2-35.2,31.9-53.3,33.2c-40.8,3.1-44.1,13.5-41.8,18.4
			C67.1,212.4,143.7,227.3,145.9,215.9z"/>
	</g>
</g>
<g id="GUY">
	<path class="st3" d="M159.6,279.8c1.5,9.1,0.2,9.6-9.1,10.7s-16.2-2.3-18.7-4.6s-3-7.5-0.6-12.2c1.6-3,3.1-4.1,3.9-7.6
		c0.8-3.6,1.6-4.4,2.2-5.6s0.8-2.4,1.1-10.5c0.2-8.1,0.1-23.6,0.9-29.9c0.8-6.6,29.6,3,29.6,3s-6.8,16.9-8.6,21.1
		s-1.7,12.2-1.7,13.9s-0.7,5-1.2,5.2s1.7,4.5,0.8,7S159.4,278.5,159.6,279.8z"/>
	<path class="st3" d="M170.5,25.3c-1-6.4-0.1-18.8,1.4-20.8c4.2-5.7,26.2-6.4,30.8,0.4c2,2.9,1.8,10,1.5,14.4s-1.5,14.1-1.7,17.3
		c-0.2,2.4-24.2,5.9-29.6-0.3C171.4,34.5,170.5,25.3,170.5,25.3z"/>
	<path class="st3" d="M219.5,263.7c10.1,7.2,18,8.7,23.1,11.4c5.1,2.7,3.8,7.8-4.8,9.3c-7,1.3-18-1.4-25.2-1.3s-23.7,0.9-28-2.2
		c-5-3.5-2.8-10-2.8-10c1.3-3.7,4.7-11.8,3.6-18.5c-1.1-6.7-2.4-10.4-4.9-16.4c-2.5-6-4.4-21.4-1.9-22.2s1.7-0.1,4.6,0.8
		c2.9,0.8,6.4,1.7,12.9,1.7c6.5,0,13.7-1.1,16.2-1.6s4.5-0.9,3.6,4.2c-0.9,5.1-3.3,14.8-3.5,22.3c-0.2,7.5-0.2,16.1,0.4,17.7
		S216.8,261.8,219.5,263.7z"/>
	<path class="st3" d="M240,133.1c0,0-3.2,10.8-9.5,14.3c0.1-0.1-4.7,1.7-14-3.5c-2.7-1.5-4.6-6.7-4.5-8.3c0.2-4,2.6-5.9,2.6-5.9
		s2.6-4.5,5.8-4.3c3.2,0.2,8.5,0.7,10.1-0.9C232.2,123,240.4,127.7,240,133.1z"/>
	<path class="st3" d="M172.1,28.4c0,0-0.6,8.5-1.8,13.9c-0.2,1-5.2,1.5-8.9,3c7,20,49.2,19.7,54.6,10c-2.6-1.8-8-4.7-10.5-5.7
		c-2.5-1.1-2.4-0.8-2.5-5.5s-0.5-13.2-0.8-15.6C201.8,26.1,176.2,26.1,172.1,28.4z"/>
	<path class="st4" d="M173.7,28.4c0,0-0.1,4.8-0.4,9.6c-0.2,2.2-0.4,3.4-0.7,5.1c-0.2,1,5.7,4.9,7.3,13.8c8.1,17.9,26.5,9,34.1,0.5
		c-2.7-1.9-7-4.3-12-6.4c-2.5-1.1-1.4-3.2-1.5-7.9c-0.1-4.7-0.8-11.6-1.1-14C199.1,26.8,177.8,26.1,173.7,28.4z"/>
	<path class="st3" d="M172.1,28.4c0,0-0.2,3-0.7,6.5c2.2,2.2,5,5.2,7.2,7c1.5,1.3,5.2,1.1,8.5,1.1c3.1,0,5.7,0.3,6.9-0.3
		c2.7-1.4,6.5-4.7,8.6-7.2c-0.1-3.1-0.3-5.9-0.5-7.1C201.8,26.1,176.2,26.1,172.1,28.4z"/>
	<path class="st3" d="M187.3,41.1c-1.9,0-4.4-0.1-6.2-0.5c-0.9-0.2-1.6-0.6-2.3-1.1c-1.1-0.8-2.3-1.8-3.7-2.8
		c-2.6-2-2.8-3.1-2.8-3.7c1.2-10.5-0.4-19.4-0.4-19.4S170.7,9,177,7.8c6.3-1.2,10.2-1.2,10.2-1.2s3.9,0.1,10.2,1.2
		c6.3,1.2,5.2,5.7,5.2,5.7s-1.6,8.8-0.4,19.4c0.1,0.6-0.1,1.7-2.8,3.7c-2.3,1.8-4.1,3.5-6,3.9C191.5,40.9,189.2,41.1,187.3,41.1z"/>
	<path class="st3" d="M187.3,2.5c-11,0.1-13.2,3-16.3,6.4c-0.7,0.8-0.1,5.8,1,16.5h1.5c0,0-1-3-0.8-6.6s0.9-3.3,0.3-4.2
		c-0.6-1-1.9-2.6,1-4.3c2.9-1.7,7.7,1.3,13.3,1.5c5.6-0.2,10.5-3.2,13.4-1.5s1.6,3.3,1,4.3c-0.6,1,0.1,0.7,0.3,4.2
		c0.1,3.5-0.8,6.6-0.8,6.6h1.5c1-10.7,1.6-15.4,1.1-16.1C201,5.5,198.3,2.5,187.3,2.5z"/>
	<path class="st3" d="M240,133.7c0,0-3.1,10.2-9.4,13.6c-1.4-0.6-1.1-1.7-2.3-3.2c-0.4-0.5-1.5-0.8-2-1.3c-0.4-0.5-0.4-1.4-1.1-2
		c-0.8-0.6-1.2-0.2-1.8-0.7c-0.7-0.6-0.8-1.5-1.4-2c-0.4-0.3-1.6-0.5-2-0.8c-0.8-0.8-8.2-2.4-7.8-3.9c0.6-2.6,2-4.4,2-4.4
		s3.1-4.7,6.3-4.5c3.2,0.2,6.1,0.8,7.8-0.7C230.2,122.2,240.5,128.3,240,133.7z"/>
	<path class="st3" d="M218.4,60.1c0,0,10.6-2.6,17.7,4.4c7.1,6.9,6.7,15.7,4.6,21c1.8,2.1,5.2,8.1,2.6,15.4
		c11,9.3,6.1,23.7-3.6,33.1c0,0-2.3-8.7-11.6-9.2c0.3-3.3-8.6-6.1-4.5-14.7c-6.4-1.6-6.2-5.8-7.2-11.2
		C215.3,93.6,218.4,60.1,218.4,60.1z"/>
	<path class="st4" d="M214.6,64.7c0,0,12.2-6.1,19.3,0.8c7.1,6.9,5.1,14.7,2.9,20c1.8,2.1,6.1,8.4,3.5,15.6
		c-0.6,1.6-4.1,1.6-6.8,6.1c6.7-3.8,10.9-2.9,12.4,2.1c2.3,7.6-2.8,16.6-7.3,21.5c-0.1-0.2-0.2-0.3-0.2-0.5
		c-0.6,2.4-1.5,7.4-6.5,12.7c-2.5,2.6-4.5,2.4-7.3,1.7c-3.3-0.8-4.5-2.3-9.2-4.9c-2.7-1.5-1.2-3.2-1.2-4.8c0-0.3,0.3-0.8,0.8-1.5
		c0.3-0.9,1.3-2.1,2.9-3.6c0,0,2.2-3,5.4-2.9c3.1,0.1,6.4-0.5,7.4-1.4v-0.1c0-5.9-6.6-6-4.4-16c0.1-0.5,1-1.4,3.6-1.6
		c-4-0.8-5.8-1.1-8.7-3.8c-2-1.8-3.5-4.1-4.1-7.1C216.2,91.8,214.6,64.7,214.6,64.7z"/>
	<path class="st3" d="M179.4,54.2c-0.9-1.4-6.1-8-16-10.7c-2.9-0.8-4.6,1.5-7.4,3.1c-0.8-0.5-4.5-2.2-6.5-1c-2,1.1-3.3,2.3-5.4,3.2
		c-1.1-0.4-2.5-1.1-4.7-0.3c-2.1,0.7-6.7,2.8-9.8,7.2c-2,7.2,35.3,1.8,35.3,1.8L179.4,54.2z"/>
	<path class="st5" d="M179.8,54.2c-5.4-1.8-4.4-8-16.4-9.1c-2.3-0.2-3.8,1.7-5.5,2.9c0.9,0.9,1.7,2.2,2.1,3.5
		c-1.4-1.7-4.2-3.9-6.8-4.4c-2.4-0.5-4.1,1.3-6.9,2.7c0.5,0.6,1.1,1.3,1.6,2.3c-2.4-1.5-4-1.9-7.1-0.8c-2.1,0.7-6.3,2.5-9.5,7
		c-2,7.2,33.6-0.9,33.6-0.9L179.8,54.2z"/>
	<path class="st3" d="M211.1,56.9c0,0,0-1.9-0.1-3.5c0-0.4-1.3-1.2-1.3-1.5l-0.3-0.4c0,0,2.6-1.4,4.7-0.7c2.1,0.7,3.4,3.5,3.4,3.5
		c3.8-1.3,4.2,0.2,5.9,2.2c3.9-0.9,4.5,0.6,6.9,4.4c0,0-3-0.4-8.8,0.4C215.7,62.1,211,56.7,211.1,56.9z"/>
	<path class="st5" d="M210.4,56c0,0,1-0.9,0.7-1.1c1.8-0.9,4.3-2.1,5.5,0.9c3.8-1.3,4.4,0.5,6.1,2.6c4.6-2.2,4.9,0.4,5.4,1.7
		c-1.5,0-3.7,0.1-6.6,0.5C215.7,61.5,210.3,55.8,210.4,56z"/>
	<path class="st3" d="M153.7,51.9c0,0,9.5,3.4,17.5,2.8s21.6-1.2,29.1,3c0,0,7.6-2.6,14.5-0.8c7,1.8,19.9,13.9,16,26.5
		c-0.3,0.9-2.5,2.1-5,3c0,0,1.3,5.7-1,10.3c-2.3,4.4-7.5,13.1-7.6,25.1l0,0c-0.2,1.9-0.5,6.1-0.8,8.1c-12.9-0.5-33-5.2-52.6-4.9
		c0.2-2.2,0.3-3.5,0.6-5.7h0.5c-1-5.4-1.4-8.3-2.4-12.4c-6.4-4.1-13.1-8.7-18.7-17.5C138.1,80.5,153.7,51.9,153.7,51.9z"/>
	<path class="st3" d="M218.1,141.8c0,0,10.3,36.9-1.9,52.4c0,0,1.9,7.1-2.3,14.8c-0.6,3.3-1.5,6.3-2.1,9.7
		c-2.2,13.9-5.8,19.6-6.8,41.7l-10-0.2c0,0-1.2-16-4.6-24.5c-2-4.8-9.9-11.4-9.5-17.9c0.3-5.1,1.4-9.2,9.8-15.8
		c0.7-9.7-9-18.8-7.6-54.8L218.1,141.8z"/>
	<path class="st4" d="M215,140.3c2.7,17,8.8,42.1-2.3,54.4c0.5,2.4,0.8,5.6,0.1,9.4c-0.3,2-0.9,4.1-1.9,6.4
		c-1.6,3.9-2.2,9.9-2.8,13.2c-2.2,13.9-2.2,14.5-3.2,36.6l-10-0.2c0,0-1.2-16-4.6-24.5c-2-4.8-6.1-9-6.5-15.5
		c-0.3-5,3.1-14.9,11.4-14.7c-0.5-20.2-9.8-16.1-12.2-58.2L215,140.3z"/>
	<path class="st4" d="M153.7,51.9c0,0,3.6,1.2,7.7,1.6c3.9,0.4,8.3,0.1,12.2-0.2c8-0.6,19.3-1.5,26.7,2.8c0,0,4.2-1.3,8.7-1
		c2,0.1,4,1.9,6.3,2.5c7.3,1.9,14.4,14,11.1,25c-0.3,0.9-2.7,0.1-5.3,0.8c0.5,2.3,0.9,7.7-1.9,13.4c-2.8,5.6-6.4,12.9-5.9,27
		c-17.4-0.8-25.3-2-42.7-2.8c-1.5-6.1-2.4-12.3-2.7-15.5c2.4-1.2,3.7-2.2,5.6-4.1c-5,0.8-7,0.5-10.1-1.2c-3.1-1.7-8.3-7-11-10.6
		c-0.3-0.4-2.2,5.2-6.3,5.3c-1.4-2.2,4.8-8.3,3.7-10.6C145.9,75.8,153.7,51.9,153.7,51.9z"/>
	<path class="st3" d="M216.4,126.5c0,0,0.4,6,0.4,7.6s1.3,6.6,1.5,9c-1.9,3.1-9.8,10.3-24.2,12.9c-14.2,3-33.3-19.6-33.3-19.6
		c0.6-2.2,2.1-8.6,3.3-11.8c0.1-0.4,0.4-1.2,0.6-1.5C165.9,120.9,216.4,126.5,216.4,126.5z"/>
	<path class="st4" d="M212.8,127c0.1,4.1,0.7,7.2,1.2,9.9c0.8,4.9,2.1,8.1,2.1,11.1c0,9.7-12.7,8-23.3,8.3
		c-14.2,3-26.4-19.6-26.4-19.6c1-3.8,1.6-8.1,3.2-11.9h0c0.2-2,0.5-4.5,0.7-5.7c20.3,0.1,34.6,1.1,43,2
		C213.3,123.1,213,126.3,212.8,127L212.8,127z"/>
	<path class="st3" d="M196.8,148.4c0,0-8.9-19.6-35.4-13.8c-6.4,17.8-14.8,38.3-9.4,60.4c-5.5,7.5-11.8,11.7-11.8,25.5
		c0,13.8,0.7,16.2,0.7,16.2l19.5,1.1c0,0,6.4-8.1,8.9-17c0.7-2.6,1.2-7.1,0.9-12.2c0.6-0.9,3.4-3.4,3.8-7.9c0,0,9.4-5,15-17.2
		C194.1,172.6,192.8,163.1,196.8,148.4z"/>
	<path class="st4" d="M196.8,148.4c-0.5-1.8-7.2-19.9-31.8-14.4c-14.5,38.6-9.1,54.6-7,61.6c-9.8,12.5-14.3,15.1-12.4,40.4l13,0
		c5.9-9.5,7.3-12.9,7.6-25.4c0-0.5-1.9,1-3.1,2.7c1-5.2,3.8-6.2,6-9.3c1-1.4,1.8-3.3,1.9-5.9c11.6-7.9,15.9-17.7,18.5-27.8
		C191.4,163.1,193.8,151.6,196.8,148.4z"/>
	<path class="st3" d="M155.6,121.6c0,0,4.6,0.1,8.4,1.5c3.9,1.4,3.9,2.2,5.4,3.9c1.5,1.8,5.1,4.2,4.5,6.6c-0.4,1.3-1.2,1.6-2.4,2.9
		c-0.5,0.6-4.2,4.5-5,5c-0.6,0.4-1.1,0.8-1.7,1.2c-0.5,0.3-2,1.4-2.5,1.7c-1.7,0.8-2.8,1.3-4.6,1.2c0,0-4.1-0.1-6.8-2.9
		c0,0-0.3-1.4,0.4-2c0,0-3.6-3-4.5-5s-1-4.8-0.4-6.3C146.8,127.6,153.3,123.4,155.6,121.6z"/>
	<path class="st3" d="M159.8,283.7l-0.5,4.1c0,0-1.4,1.9-12.7,1.7s-14.3-3.7-15.3-5.6l-0.7-4.3c0,0,2.1-3.1,2.7-3.1
		c3.7,0.3,16.2,5.3,24.9,6.6C158.9,283.2,159.1,283.6,159.8,283.7z"/>
	<path class="st3" d="M183.9,275.2c0,1.9-0.2,1.8-0.2,3.7c2,1.6,6.9,2.4,16.5,2.1c13.9-0.4,26.6,4.2,42.2,1.5l0.1-3l-1.5-0.2
		l-55.4-4.5L183.9,275.2z"/>
	<path class="st3" d="M196.1,281c1.3,0,2.7,0,4.2,0c9-0.2,17.5,1.6,26.7,2.2c4.9-0.2,10.9-1.2,10.3-4.8l-47.2-3.9
		C187,277.5,189.2,280.1,196.1,281z"/>
	<path class="st3" d="M141.8,210.9c1.5,0.9,11.6,7,28.1,6.1c-0.3,3.1-0.1,9.4-7.5,20.2c-3.6,5.3-6.8,14.6-7.4,26.4
		c0.1,2.7,1.7,5-0.4,8.4c0.6,2.1,3.3,6.5,4.6,9.1s2,5.6-6.9,5.8c-8.9,0.2-23.4-0.9-21.5-7.8c1-3.7,3.8-7.5,4.1-9
		c0.4-1.5,0.3-6,3.2-9.1c2.5-8.3,1.7-16.4,1.1-23.9C138.6,229.8,138.5,217.2,141.8,210.9z"/>
	<path class="st3" d="M157.3,75.1c11.8-15.8,1.9-28.5-17.1-24.6c-7.7,1.5-15.4,6.8-15.9,16.4c-2.5,0.4-8.2,0.7-11,11
		c-2.2,8-3.3,9.5-7.1,13.5c-2.4,2.9,0.2,8.7,1.9,12.8c6.1,14.3,25.2,15.7,37.9,26.6c4.4-1.2,8.8-5.9,10.2-9.1
		c-10.8-12.9-8.5-17.9-12.8-24.4C148.1,95.5,158.8,89,157.3,75.1z"/>
	<path class="st4" d="M155,74.2c0.7-0.9,1.8-3.1,2.4-4c0.1-0.2,2.1,3,2.2,2.8c4.6-7.3,5.6-18,0.5-19c-1.1-0.2-3.3-0.7-5.1-1.3
		c-3.3-1.2-6.4-1.2-11.7-0.2c-7.4,1.4-14.6,6.7-14.7,14.3c0,0.5,5.1,2,6.7,8.1c-2.5-3.4-6.8-7.4-12-4c-5.4,3.5-2.6,11.5-10.1,19.8
		c-2.5,2.8-2.1,6.2,0.6,12.8c4.3,10.6,24.9,16.2,36,26.2c2.6-1.1,4.6-3.8,5.8-5.8c-7.5-7.9-10.5-15.2-12.7-20.5
		c-2.6-6.2-5.6-9.6-11.5-14.4c3.1,1.2,5.3,2.2,6.7,3.3c1.5,1.1,3.7,1.1,5.6,0.5C150.7,90.5,154.5,80.5,155,74.2z"/>
	<path class="st3" d="M227.4,76.9c-0.4,6.3-5.1,3.1-7.7,2c-4.9-2.1-10-3.6-15.9-3.7c-5.8-0.1-13.4,0.4-19.8,2.2
		c-8.9,2.5-11.6,2.4-15.6,0.3c-4-2.1-11-7.5-11-7.5s-0.2,1.7,1.5,3.8c2.2,2.7,6.9,6,13.5,8.2c3.1,1.1,5.7,0.4,8.5-0.3
		c14.7-3.7,30.5-4.4,43.6,3.7c0.6,0.4,3-0.6,4-2.2C229.9,81.2,227.4,76.9,227.4,76.9z"/>
	<path class="st6" d="M151.6,140.3c1.4,0.8,2.9,1.3,4.8,2.8c0,0-1.5,0-2.2-0.6c-0.7-0.6-2.4-2-2.8-2.1
		C151.5,140.4,151.6,140.3,151.6,140.3z"/>
	<path class="st4" d="M199.7,8.1c-0.4-1.5-4.1-4.2-12.7-4.2c-9.1,0-11.8,2.8-12,4.3c-0.1,0.5-0.7,5.9-0.8,8c0,0.1,0,2.7,0.2,6.7
		c0.1,2.7,0.8,4.2,1.1,7.6c0.4,3.6,1.4,6.1,3.2,8.9c0.8,0.5,1.5,1,2.3,1.1c3.2,0.7,9.2,0.8,12.4-0.1c1.9-0.4,4.2-3.7,4.7-6.5
		c0.7-3.5,1.4-6.1,1.5-8.2c0.3-2.2,0.5-7,0.7-8.3C200.7,14.3,199.9,8.6,199.7,8.1z"/>
	<path class="st3" d="M182.2,214.1c0,0,8.8,3.9,30.6,0.5c0,0-6.2,31-3.3,46.4c0,0,2.8,3.9,23.9,11.7c0,0,9.4,2.4,9,6.9
		c0,0,0.3,1-11,0.7c-11.3-0.3-22-2.3-29.5-2.3s-15.4,0.3-16.9-1.8c-1.4-2.1,0.3-7.2,2.5-10.1c2.3-3.1,1.7-5.4,1.5-11.2
		C188.6,240.1,177.2,224.7,182.2,214.1z"/>
	<path class="st5" d="M180.4,216.9c-1.2,1.6,0.1,7.9,1.9,14.1s5.4,9.9,6.2,19.9c0.9,10,1,11.3-1.9,17.2c-2.8,5.9-3.7,11.2,6.2,11.3
		s15.2-0.1,25.1,1.3c9.9,1.4,13.5,2,19,1.2c5.5-0.8,6.7-2.7,4.3-4.3s-11.9-3.5-16.2-6.8c-4-3.1-15.3-8-15.5-9.3
		c-0.5-4.5-0.7-20.8,0.1-26.2s2-12.9,2.4-15c0.4-2.1,2-4.1-0.9-3.4s-13.5,2.2-21.4,1.6C182,218,180.9,216.4,180.4,216.9z"/>
	<path class="st7" d="M186.1,268.4c2.8,1.3,6.9,2.3,10.2,2.3c0,0-1.1,5.5,0.7,8.9s-13.3,1.3-13.3,1.3l-0.7-11.8L186.1,268.4z"/>
	<path class="st7" d="M230.3,282.6c2.7-0.8,4.5-3.8,2.3-6.6c-2.3-2.8-4.3-3.4-1.3-3.5s14.1,6.5,14.1,6.5l-5.7,5.1L230.3,282.6z"/>
	<path class="st7" d="M179.9,223.4c3.8,1.3,9.7,1.8,14.7,1.6c5-0.2,12.6-0.9,17.4-2.4c4.8-1.6,2.9,1.8,2.9,1.8l-2.7,2.5
		c0,0-6.4,2.4-16.6,2.3c-12.1-0.2-15.8-1.6-15.8-1.6L179.9,223.4z"/>
	<path class="st7" d="M180.3,231.8c3.8,1.3,9.7,1.8,14.7,1.6s11.7-0.2,16.5-1.9c1.9-0.7,0.9,2.1,0.9,2.1l-0.8,1.5
		c0,0-6.5,2.3-16.7,2.1c-12.1-0.2-14.3-1.1-14.3-1.1L180.3,231.8z"/>
	<path class="st3" d="M169.2,114.9c0,1.2,13.1,7.7,20.2,9.1s22.1-0.1,24.6-0.5l-0.3,2.3c0,0-17.8,2.6-31.4-1
		c-13.6-3.6-12.2-4.6-12.2-4.6L169.2,114.9z"/>
	<g>
		<path class="st4" d="M141.4,257c1.9,1,9.1,2.8,13.8,1.8c0.6-0.1,0-11.5,1.9-16.6c2.6-7.1,7-12.9,9-25.7c-7-0.7-15.1-2.4-19.2-3.9
			C141.6,229.1,143.5,243.1,141.4,257z"/>
		<path class="st4" d="M152.7,267.5c1.1,0.3,1.9,1.7,2.2,0.9c0.6-1.5-1.2-4.3-1.4-6.4c0-0.2,0,0,0-0.2c-1.5-1.4-11.6-1.5-11-0.8
			c-1.2,2.2-3,1.8-3.7,6.1c-0.4,2.2,2.4,0.3,4.8,0.2c-4.5,3-9.6,6.9-10.4,10.2c-1.1,4.6,0.7,5.9,5.6,8.5c4.3,1,9.4,1.1,13.5,0.9
			c4.4-0.8,5.4-2.9,4-6C154.4,276.5,153.1,270.7,152.7,267.5z"/>
	</g>
	<path class="st3" d="M154.5,51.1c5.4,3.2,13.1,2.3,16,2.1c0.6,0,7.3-1.2,7.7-1.1c0.6,0.1,0.6,0.7,0.6,0.7s-2.5,1.4-8.2,1.7
		c-5.3,0.4-11.6-0.1-15.2-1.6C151.3,51.2,154.5,51.1,154.5,51.1z"/>
	<path class="st3" d="M211,54.4c1,0.8,7.6,3.1,10.4,6.1c2.5,2.7,1.2,2.6,0.6,1.8s-5.9-4.3-7.8-5.2s-4.4-2.3-4.5-2.6
		C209.7,54.1,211,54.4,211,54.4z"/>
	<path class="st4" d="M153.6,123.6c4.8-0.3,9.8,0.8,13,4.1c1.7,1.7,4.4,3.4,4,5.2c-0.1,0.5-1.1,1.9-1.9,2.8
		c-0.5,0.6-1.9,2.2-2.6,2.7c-0.7,0.5-2.9,2.4-3.5,2.7c-0.5,0.3-1.2,1.1-1.7,1.4c-1.7,0.9-3.5,0.2-5.2-0.6c-1.6-0.8,0.4-0.9-1.5-2.3
		c-4.4-3.1-6.9-5.4-5.2-11.5C149.4,126.6,151.3,125.4,153.6,123.6z"/>
	<path class="st8" d="M172.4,82.2c-3.9-1.6-6.8,3-5.8,7.3c0.9,4.3,10.1,9.1,9.6,25c-0.4,13-3.2,18.3-3.2,18.3l-6.4-8
		c0,0-0.9-18-3.1-20.7s-8.9-7.4-11.6-10c-2.7-2.6,3-5.9,2.6-10.5c-0.4-4.6,2.9-13.5,2.9-13.5L172.4,82.2z"/>
	<path class="st8" d="M195.7,153.2c-0.4,12.5,2.5,31,3.6,39.8s2.7,9.5,0,13.5c-2.6,3.9-6.2,10.2-6.2,10.2l-11.5-1
		c0,0,9.2-11.6,9.7-13.8c0.5-2.2-4.7-18.7-4.7-18.7L195.7,153.2z"/>
	<path class="st8" d="M173.5,36.5c2.3,5.1,5.2,7.4,9.6,9c2.7,1,13.2,2.4,17.4-2.4c1.9-2.1,0.6-8,0.6-8l-9.5,7.7l-12.9-2.3l-1.5-3.8
		L173.5,36.5z"/>
	<path class="st9" d="M174.5,48.1c4.3,2.9,15.1,5.4,18.1,6s7.8-3.2,10.2-4.2c2.6-1.1,6.8-1.8,11.8,2.7c0.6,0.5-1.2,2.6-1.2,2.6
		c-0.2-0.2-1.1-0.2-2.5-0.8c-1.4-0.6-2.5-1.2-4.4-1c-8.3,1-9.7,3.8-17,2.2c-7.2-1.7-9.2-3-16.3-2.7"/>
	<path class="st5" d="M173,48.6c5.6,2.4,16.1,4.9,19.2,5.5s7.8-2.3,10.1-3.8c4.1-2.6,9.6-0.4,12,2.3c1.6,1.8,2.3,3.1,2.3,3.5
		c0,0.6-2,0-2,0c-1.1-0.6-2.5-0.7-3.5-1.2c-1.3-0.7-2.7-1.6-4.6-1.4c-8.3,1-10,3.8-17.2,2.2s-9.1-3.2-16.7-2.7"/>
	<path class="st8" d="M224.3,96.9c0.4,2.6,1.9,7.3,4.4,9.6c1.2,1.1,1.4,1.5,0.4,1.5c-1,0-8.2-0.4-8.2-0.4l-2-3.4L224.3,96.9z"/>
</g>
</svg>
