<?xml version="1.0" encoding="utf-8"?>
<!-- Generator: Adobe Illustrator 27.0.0, SVG Export Plug-In . SVG Version: 6.00 Build 0)  -->
<svg version="1.1" id="Layer_1" xmlns="http://www.w3.org/2000/svg" xmlns:xlink="http://www.w3.org/1999/xlink" x="0px" y="0px"
	 viewBox="0 0 122.9 122.8" style="enable-background:new 0 0 122.9 122.8;" xml:space="preserve">
<style type="text/css">
	.st0{fill:#006C32;}
</style>
<g>
	<path class="st0" d="M29.8,59.4C33.4,66,37.6,72.3,43.1,78c5.5,5.8,12.2,11,21,15.5c0.6,0.3,1.3,0.3,1.8,0.1c0.8-0.3,1.7-1,2.5-1.8
		c0.6-0.6,1.5-1.7,2.3-2.8c3.4-4.4,7.6-10,13.5-7.2c0.1,0.1,0.2,0.1,0.4,0.2l19.7,11.3c0.1,0,0.1,0.1,0.2,0.1
		c2.6,1.8,3.7,4.5,3.7,7.7c0,3.2-1.2,6.8-2.9,9.8c-2.3,4-5.6,6.6-9.5,8.4c-3.7,1.7-7.8,2.6-11.7,3.2c-6.2,0.9-11.9,0.3-17.9-1.5
		c-5.8-1.8-11.6-4.7-17.9-8.7l-0.5-0.3c-2.9-1.8-6.1-3.8-9.2-6.1C27.4,97.3,15.9,85,8.4,71.4C2.1,60-1.4,47.7,0.5,36
		c1-6.4,3.8-12.3,8.6-16.1c4.2-3.4,9.8-5.2,17.1-4.6c0.8,0.1,1.6,0.6,2,1.3l12.6,21.4c1.9,2.4,2.1,4.8,1.1,7.1
		c-0.8,1.9-2.5,3.7-4.8,5.4c-0.7,0.6-1.5,1.2-2.3,1.8C31.9,54.3,28.7,56.7,29.8,59.4L29.8,59.4L29.8,59.4L29.8,59.4z M107.9,18
		c2.6,0,4.7,2.1,4.7,4.7s-2.1,4.7-4.7,4.7s-4.7-2.1-4.7-4.7S105.3,18,107.9,18L107.9,18z M75.7,18c2.6,0,4.7,2.1,4.7,4.7
		s-2.1,4.7-4.7,4.7S71,25.3,71,22.7S73.1,18,75.7,18L75.7,18z M92.4,18c2.6,0,4.7,2.1,4.7,4.7s-2.1,4.7-4.7,4.7s-4.7-2.1-4.7-4.7
		S89.8,18,92.4,18L92.4,18z M73,0c-3.5,0-6.5,1.2-9,3.7s-3.7,5.5-3.7,9v22.4c0,3.5,1.2,6.6,3.7,9c2.5,2.5,5.5,3.7,9,3.7h10.5
		c-0.7,2.8-1.6,5.5-2.8,8c-1.1,2.5-3,5-5.6,7.3c5-1.3,9.4-3.2,13.3-5.8c3.9-2.5,7.3-5.7,10-9.5h11.6c3.5,0,6.5-1.3,9-3.7
		c2.5-2.5,3.7-5.5,3.7-9V12.7c0-3.5-1.2-6.5-3.7-9c-2.5-2.5-5.5-3.7-9-3.7C98.8,0,84.3,0,73,0L73,0L73,0z"/>
</g>
</svg>
