<?xml version="1.0" encoding="utf-8"?>
<!-- Generator: Adobe Illustrator 27.0.0, SVG Export Plug-In . SVG Version: 6.00 Build 0)  -->
<svg version="1.1" id="Layer_1" xmlns="http://www.w3.org/2000/svg" xmlns:xlink="http://www.w3.org/1999/xlink" x="0px" y="0px"
	 viewBox="0 0 103.1 122.9" style="enable-background:new 0 0 103.1 122.9;" xml:space="preserve">
<style type="text/css">
	.st0{fill:#FFFFFF;}
</style>
<rect x="4" y="4" class="st0" width="95.1" height="114.9"/>
<g>
	<path d="M1.2,122c-0.7-0.3-1.2-1-1.2-1.8V2c0-1.1,0.9-2,2-2h19.4h79.7c1.1,0,2,0.9,2,2v107.7c0,0.1,0,0.2,0,0.3
		c-0.3,3.9-1.6,7-3.9,9.2c-2.3,2.2-5.5,3.4-9.7,3.6c-0.1,0-0.2,0-0.3,0H2.8C2.2,122.9,1.5,122.5,1.2,122L1.2,122z M45.4,39.1
		c2.5,5.1,9.9,5.3,12.3,0c-0.6-0.7-1.1-1.3-1.6-2C56,37,56,36.8,55.9,36.7c-1.1,0.9-2.5,1.5-4.3,1.5c-1.9,0-3.4-0.8-4.6-1.8
		c-0.1-0.1-0.1-0.1-0.2-0.2c-0.2,0.5-0.4,1-0.6,1.6C45.9,38.2,45.7,38.7,45.4,39.1L45.4,39.1L45.4,39.1z M58.4,38.5
		c2.6,1.9,9,2.3,11.5,3.7c0.8,0.5,1.6,1,2.2,1.8c1.2,1.6,3.8,7.6-0.3,7.9H64l0.9-10.6c-2.1-0.4-4.3-0.7-6.5-2
		c-1.4,6.2-11,7.1-13.8,0.2c-2,1-4,1.6-6.4,2l1.5,10.5h-8.3c-4.1-0.3-1.6-6.2-0.3-7.9c0.6-0.8,1.3-1.4,2.2-1.8
		c2.5-1.4,8.8-1.8,11.5-3.7c0.2-0.3,0.4-0.7,0.6-1.2c0.3-0.7,0.6-1.5,0.8-2c-0.7-0.9-1.4-1.8-2-2.8l-2-3.2c-0.7-1.1-1.1-2.1-1.1-2.9
		c0-0.4,0-0.7,0.2-1c0.2-0.3,0.4-0.6,0.7-0.8c0.1-0.1,0.3-0.2,0.5-0.2c-0.1-1.7-0.2-3.9-0.1-5.7c0-0.4,0.1-0.9,0.2-1.3
		c0.5-1.8,1.8-3.3,3.4-4.3c0.9-0.6,1.8-1,2.8-1.3c0.6-0.2-0.1-1.6,0.6-1.7c3.2-0.3,7.9,2,10.1,4.4c1.1,1.2,1.8,2.8,2,4.9l-0.1,5.2
		l0,0c0.6,0.2,0.9,0.5,1.1,1.1c0.2,0.6,0,1.5-0.5,2.7l0,0c0,0,0,0,0,0.1l-2.3,3.8c-0.8,1.4-1.7,2.8-2.8,3.9c0.1,0.1,0.2,0.3,0.3,0.4
		C57.4,37.2,57.8,37.9,58.4,38.5C58.4,38.5,58.4,38.5,58.4,38.5L58.4,38.5L58.4,38.5z M43.5,25.3c-0.4,0-0.8,0.1-1,0.3
		c-0.1,0.1-0.2,0.2-0.3,0.3c-0.1,0.1-0.1,0.3-0.1,0.5c0,0.6,0.3,1.4,1,2.3l0,0l2,3.2c0.8,1.3,1.7,2.6,2.7,3.5c1,0.9,2.2,1.5,3.8,1.5
		c1.8,0,3-0.6,4.1-1.6c1.1-1,1.9-2.4,2.8-3.8l2.3-3.7c0.4-1,0.6-1.6,0.5-2c-0.1-0.2-0.3-0.3-0.7-0.4c-0.1,0-0.2,0-0.3,0
		c-0.1,0-0.2,0-0.3,0c-0.1,0-0.1,0-0.2,0c-0.2,0-0.4,0-0.6,0l0.8-3.4c-5.7,0.9-10-3.4-16.1-0.9l0.4,4C43.9,25.4,43.7,25.4,43.5,25.3
		L43.5,25.3L43.5,25.3L43.5,25.3z M70.5,108.2c-1.1,0-2-0.9-2-2c0-1.1,0.9-2,2-2h16.7c1.1,0,2,0.9,2,2c0,1.1-0.9,2-2,2H70.5
		L70.5,108.2z M16.8,93.6c-1.1,0-2-0.9-2-2c0-1.1,0.9-2,2-2h70.5c1.1,0,2,0.9,2,2c0,1.1-0.9,2-2,2H16.8L16.8,93.6z M17.1,79.1
		c-1.1,0-2-0.9-2-2c0-1.1,0.9-2,2-2h70c1.1,0,2,0.9,2,2c0,1.1-0.9,2-2,2H17.1L17.1,79.1z M16.8,64.5c-1.1,0-2-0.9-2-2
		c0-1.1,0.9-2,2-2h30.1c1.1,0,2,0.9,2,2c0,1.1-0.9,2-2,2H16.8L16.8,64.5z M54.6,64.5c-1.1,0-2-0.9-2-2c0-1.1,0.9-2,2-2h32.5
		c1.1,0,2,0.9,2,2c0,1.1-0.9,2-2,2H54.6L54.6,64.5z M99.1,109.7V4H21.4H4v114.9h85.3h0c3.2-0.2,5.6-1,7.2-2.6
		C98.1,114.8,98.9,112.6,99.1,109.7L99.1,109.7z"/>
</g>
</svg>
