<svg fill="#000000" xmlns="http://www.w3.org/2000/svg"  viewBox="0 0 24 24" width="48px" height="48px"><path d="M15.17 14.884c-.186 0-.744-.093-.744-.837h-1.488c0 .93.744 1.953 2.233 1.953.744 0 2.14-.279 2.14-1.674 0-2.047-2.698-1.767-2.698-2.698 0-.372.279-.558.558-.558.372 0 .558.279.558.744h1.581c0-1.023-.744-1.86-2.14-1.86-.744 0-2.047.372-2.047 1.767 0 1.86 2.698 1.767 2.698 2.605C15.821 14.698 15.542 14.884 15.17 14.884zM8.674 13.116h1.116c1.209 0 2.512-.651 2.512-2.512C12.302 10.14 12.023 8 9.698 8H7v7.907h1.674V13.116zM8.674 9.302h1.116c.651 0 .93.651.93 1.302 0 .651-.186 1.209-.93 1.209H8.674V9.302z"/><path d="M19,3H5C3.9,3,3,3.9,3,5v14c0,1.1,0.9,2,2,2h14c1.1,0,2-0.9,2-2V5C21,3.9,20.1,3,19,3z M19,19H5V5h14V19z"/></svg>