<svg fill="#000000" xmlns="http://www.w3.org/2000/svg"  viewBox="0 0 24 24" width="48px" height="48px"><path d="M10.6,14.363H8.265L7.811,16H6l2.649-8h1.566l2.667,8h-1.828L10.6,14.363z M8.638,13.016h1.584l-0.792-2.852L8.638,13.016z"/><path d="M14.821,10l0.047,0.643C15.24,10.178,15.727,10,16.329,10c1.083,0,1.64,0.661,1.671,2.093V16h-1.654v-3.791 c0-0.337-0.053-0.582-0.16-0.734s-0.294-0.228-0.562-0.228c-0.299,0-0.532,0.145-0.699,0.434V16h-1.654v-6H14.821z"/><path d="M19,5v14H5V5H19 M19,3H5C3.896,3,3,3.895,3,5v14c0,1.105,0.896,2,2,2h14c1.104,0,2-0.895,2-2V5C21,3.895,20.104,3,19,3 L19,3z"/></svg>