<?xml version="1.0" encoding="utf-8"?>
<!-- Generator: Adobe Illustrator 25.2.1, SVG Export Plug-In . SVG Version: 6.00 Build 0)  -->
<svg version="1.1" id="Layer_1" xmlns="http://www.w3.org/2000/svg" xmlns:xlink="http://www.w3.org/1999/xlink" x="0px" y="0px"
	 viewBox="0 0 195.03 225.33" style="enable-background:new 0 0 195.03 225.33;" xml:space="preserve">
<style type="text/css">
	.st0{fill:#B3DECA;stroke:#04213E;stroke-width:0.5;}
	.st1{fill:#B3DECA;}
	.st2{fill:#04213E;}
</style>
<g>
	<path class="st0" d="M68.09,217.52c-2-4.31-4.31-12.14-2.86-16.41c1.58-4.68,5.42-8.82,11.39-12.29l69.05-40.01
		c21.01-12.18,15.46-21.75,13.37-25.36c-1.93-3.32-4.05-5.44-6.29-6.27c-2.53-0.94-4.93-1.18-7.39-0.76
		c-2.97,0.51-6.87,1.54-11.6,3.04c-5.33,1.69-9.71,2.17-13.37,1.43c-4.12-0.83-7.51-3.49-10.06-7.89c-2.55-4.4-3.3-8.9-2.23-13.39
		c1.09-4.56,4.17-8.34,9.14-11.22c4.04-2.35,8.7-4.22,13.84-5.58c5.09-1.35,10-2.05,14.58-2.08c8.82,0.01,16.63,2.33,23.24,6.9
		c5.26,3.64,9.81,8.76,14.27,15.45L128.16,9.93c2.29,4.53,3.16,9.77,1.64,14.26c-1.58,4.68-11.38,13.06-28.58,22.85L49.01,76.35
		C28.36,88.69,33.91,98.26,36,101.87c1.93,3.32,4.04,5.44,6.29,6.27c2.53,0.94,4.93,1.18,7.39,0.76c2.97-0.51,6.87-1.54,11.6-3.04
		c5.33-1.69,9.71-2.17,13.37-1.43c4.12,0.83,7.51,3.49,10.06,7.89c2.55,4.4,3.3,8.9,2.23,13.39c-1.09,4.56-4.17,8.34-9.14,11.22
		c-4.05,2.35-8.7,4.22-13.84,5.58c-5.09,1.35-10,2.05-14.58,2.08c-8.82-0.01-16.63-2.33-23.24-6.9
		c-5.55-3.83-10.69-9.42-15.33-16.64L68.09,217.52z"/>
	<path class="st1" d="M126.85,7.65l-0.65-1.1l-0.14,0.08C126.32,6.97,126.59,7.3,126.85,7.65z"/>
	<path class="st1" d="M7.04,114.61l-0.03,0.06l0.55,0.92C7.38,115.27,7.21,114.94,7.04,114.61z"/>
</g>
<path class="st2" d="M49.36,144.57C21.18,145.61,0.51,113.63,0,88.24c-0.08-22,15.9-36.28,34.22-46.31L99.6,4.04
	C114.91-7.23,135.06,7,129.8,24.22c-1.75,12.17-71.47,45.03-80.43,52.29c-24.01,14.33-15.76,25.6-7.09,31.62
	c13.58,4.31,33.14-13.76,42.41,4.18C96.95,133.91,66.28,144.78,49.36,144.57z"/>
<path class="st2" d="M145.67,80.76c8.82,0.01,16.63,2.33,23.24,6.9c6.42,4.43,12.31,11.22,17.49,20.16
	c5.78,9.97,8.68,19.82,8.63,29.27c-0.05,9.63-3,18.33-8.76,25.85c-3.3,4.34-7,8.07-10.98,11.07c-3.84,2.89-8.71,6.05-14.47,9.39
	l-65.38,37.89c-6,3.48-11.53,4.72-16.43,3.68c-5.07-1.07-9.09-4.12-11.96-9.08c-2.85-4.92-3.47-9.9-1.82-14.79
	c1.58-4.68,5.41-8.82,11.39-12.29l69.05-40.01c21.01-12.18,15.46-21.75,13.37-25.36c-1.93-3.32-4.05-5.44-6.29-6.27
	c-2.53-0.94-4.93-1.18-7.39-0.76c-2.97,0.51-6.87,1.54-11.6,3.04c-5.33,1.69-9.71,2.17-13.37,1.43c-4.12-0.83-7.51-3.49-10.06-7.89
	c-2.55-4.4-3.3-8.9-2.23-13.39c1.09-4.56,4.17-8.34,9.14-11.22c4.05-2.35,8.7-4.22,13.84-5.58
	C136.18,81.49,141.09,80.79,145.67,80.76z"/>
</svg>
