<svg fill="#000000" xmlns="http://www.w3.org/2000/svg"  viewBox="0 0 24 24" width="48px" height="48px"><path fill="none" stroke="#000000" stroke-linecap="round" stroke-linejoin="round" stroke-miterlimit="10" stroke-width="2" d="M9.5,23L9.5,23C7.567,23,6,21.433,6,19.5l0,0C6,17.567,7.567,16,9.5,16H13v3.5C13,21.433,11.433,23,9.5,23z"/><path fill="none" stroke="#000000" stroke-linecap="round" stroke-linejoin="round" stroke-miterlimit="10" stroke-width="2" d="M16.5,9H13V2h3.5C18.433,2,20,3.567,20,5.5l0,0C20,7.433,18.433,9,16.5,9z"/><path fill="none" stroke="#000000" stroke-linecap="round" stroke-linejoin="round" stroke-miterlimit="10" stroke-width="2" d="M9.5,9H13V2H9.5C7.567,2,6,3.567,6,5.5l0,0C6,7.433,7.567,9,9.5,9z"/><path fill="none" stroke="#000000" stroke-linecap="round" stroke-linejoin="round" stroke-miterlimit="10" stroke-width="2" d="M9.5,16H13V9H9.5C7.567,9,6,10.567,6,12.5l0,0C6,14.433,7.567,16,9.5,16z"/><circle cx="17" cy="13" r="3"/></svg>